PathFileType	4	(X/Y/Z)	TVC_4_BWA_8_walk_RCNL2025.trc
DataRate	CameraRate	NumFrames	NumMarkers	Units	OrigDataRate	OrigDataStartFrame	OrigNumFrames
100	100	11	27	mm	100	258	294
Frame#	Time	R_Shoulder			L_Shoulder			C7			J_Notch			R_Elbow			L_Elbow			R_Wrist			L_Wrist			R_Asis			L_Asis			R_Psis			L_Psis			Sacral			Thoracic			Sternum			R_Thigh_Lateral			R_Knee_Lateral			R_Shank_Lateral			R_Ankle_Lateral			R_Heel			R_Toe			L_Thigh_Lateral			L_Knee_Lateral			L_Shank_Lateral			L_Ankle_Lateral			L_Heel			L_Toe		
		X1	Y1	Z1	X2	Y2	Z2	X3	Y3	Z3	X4	Y4	Z4	X5	Y5	Z5	X6	Y6	Z6	X7	Y7	Z7	X8	Y8	Z8	X9	Y9	Z9	X10	Y10	Z10	X11	Y11	Z11	X12	Y12	Z12	X13	Y13	Z13	X14	Y14	Z14	X15	Y15	Z15	X16	Y16	Z16	X17	Y17	Z17	X18	Y18	Z18	X19	Y19	Z19	X20	Y20	Z20	X21	Y21	Z21	X22	Y22	Z22	X23	Y23	Z23	X24	Y24	Z24	X25	Y25	Z25	X26	Y26	Z26	X27	Y27	Z27
258	2.57000000	800.472656	1299.590942	399.720001	778.714233	1326.713867	19.577030	731.391235	1378.771484	230.543503	872.049500	1259.177124	193.454819	816.930298	982.441833	460.358398	683.970764	1013.889099	-45.852364	950.573914	796.604736	425.978973	727.834015	802.206085	-56.714439	793.340942	867.748962	366.706970	753.029968	862.818481	14.872665	637.520020	903.101562	259.480316	629.239624	898.706238	167.549316	633.379822	900.903900	213.514816	645.837891	1134.701416	220.749466	903.760193	1070.020630	180.732193	773.374023	515.448364	362.657410	742.188721	427.575653	306.983337	694.337585	258.177307	364.727631	629.221741	59.552834	259.208099	576.713135	59.766281	217.801727	755.130127	45.457123	228.339523	857.816528	515.127258	1.242964	871.033936	437.904053	49.333393	882.423096	319.090698	1.900647	930.234924	68.550415	81.537170	894.901978	50.483181	135.072220	1063.845337	80.048813	79.567192
259	2.58000000	808.541748	1298.390991	399.545990	786.959656	1325.194336	19.316002	739.443848	1377.349365	230.244812	880.353943	1257.955688	193.403625	827.243774	981.329590	460.190826	690.607178	1012.830078	-45.700371	963.083405	797.155304	425.044418	732.886475	800.877747	-57.162434	801.311279	866.301819	366.660614	762.716980	861.599670	14.600816	646.072266	901.439758	258.548492	638.142700	897.051392	166.670303	642.107483	899.245575	212.609398	654.161926	1133.185791	220.435028	912.334045	1068.759155	180.905289	778.470215	514.258850	362.695068	746.271301	426.708740	306.924835	696.211487	257.934570	364.735504	629.322815	59.839260	259.199127	576.868591	60.440102	217.879150	755.125366	45.398647	228.300293	863.624329	512.098450	0.768578	878.677917	435.740540	49.615112	894.875000	317.079590	2.875207	952.599060	68.210373	84.507935	917.928955	49.481155	138.098068	1086.415527	84.705338	82.822182
260	2.59000000	816.605225	1297.120850	399.287140	795.286621	1323.603027	18.966000	747.524841	1375.879639	229.842453	888.706238	1256.691895	193.276199	837.388062	980.151550	459.939667	697.479492	1011.649658	-45.641243	975.302979	797.593781	424.074234	738.285736	799.472626	-57.635721	809.440796	864.782043	366.563568	772.464905	860.286682	14.297344	654.753052	899.705627	257.602356	647.138367	895.340698	165.791840	650.945709	897.523163	211.697098	662.550537	1131.612061	220.031296	920.972778	1067.430542	181.019989	783.846130	512.983765	362.639038	750.536804	425.797729	306.809601	698.257874	257.695984	364.696075	629.453796	60.195053	259.210876	577.055237	61.214966	217.964569	755.113647	45.319473	228.249557	869.754028	509.128418	0.415115	886.656921	433.645203	49.991348	907.038391	315.276764	3.938058	973.071777	68.034782	87.503960	938.922668	48.788174	141.108795	1107.030151	88.891830	86.205635
261	2.60000000	824.661133	1295.804565	398.938568	803.691345	1321.960327	18.522064	755.634949	1374.383667	229.331421	897.106689	1255.409180	193.066803	847.354370	978.928467	459.603882	704.597534	1010.362732	-45.673607	987.213654	797.926544	423.074417	744.043152	798.002380	-58.133484	817.743835	863.205383	366.415405	782.231323	858.863281	13.972901	663.560364	897.924622	256.660553	656.228271	893.601196	164.924500	659.894318	895.762909	210.792526	671.007019	1130.000977	219.539352	929.678711	1066.062866	181.072540	789.510620	511.636810	362.485443	755.002441	424.850433	306.630585	700.504395	257.473846	364.612671	629.620667	60.636204	259.245331	577.276123	62.106823	218.056091	755.093018	45.221813	228.195923	876.402100	506.347809	0.259781	895.058899	431.665924	50.480610	918.863159	313.633881	5.098214	991.456238	67.876434	90.463127	957.646606	48.251427	144.040955	1125.493286	92.265862	89.651909
262	2.61000000	832.708801	1294.469971	398.496307	812.169678	1320.289307	17.980337	763.775146	1372.885132	228.707886	905.555542	1254.133057	192.770767	857.133484	977.684937	459.182922	711.969177	1008.988098	-45.795013	998.796570	798.162354	422.051483	750.169189	796.482178	-58.654449	826.231140	861.590149	366.215942	791.983643	857.321167	13.639267	672.490601	896.124756	255.740402	665.412903	891.862366	164.077744	668.951752	893.993561	209.909073	679.534119	1128.375122	218.961136	938.454529	1064.687500	181.059082	795.466431	510.236206	362.239014	759.688049	423.877380	306.384460	702.976929	257.278656	364.492035	629.825439	61.178776	259.298920	577.532959	63.132568	218.150986	755.066345	45.107868	228.150970	883.718262	503.864838	0.359968	903.943787	429.841431	51.091801	930.302307	312.086090	6.365224	1007.622314	67.610306	93.326073	973.943604	47.744904	146.837173	1141.677246	94.527878	93.088531
263	2.62000000	840.749084	1293.147949	397.957550	820.717163	1318.615356	17.338278	771.947021	1371.408691	227.969437	914.053284	1252.890747	192.384583	866.716309	976.448364	458.676910	719.600098	1007.547974	-46.002037	1010.032959	798.312134	421.012482	756.673279	794.930450	-59.196838	834.909119	859.956970	365.965149	801.704163	855.664917	13.306923	681.538025	894.335999	254.857147	674.691040	890.155640	163.259583	678.114532	892.245819	209.058365	688.133850	1126.758911	218.299561	947.303345	1063.339111	180.975815	801.711914	508.804230	361.912506	764.618835	422.891785	306.071259	705.693298	257.119232	364.344330	630.067993	61.841286	259.365417	577.827576	64.311317	218.245544	755.043335	44.980190	228.127258	891.787903	501.755585	0.740091	913.339661	428.201782	51.821621	941.325073	310.566193	7.744121	1021.520264	67.147591	96.038429	987.752502	47.184727	149.447830	1155.541260	95.454582	96.442459
264	2.63000000	848.784668	1291.871338	397.320770	829.329346	1316.966064	16.594841	780.152588	1369.980103	227.115234	922.600525	1251.709839	191.906052	876.093628	975.248596	458.086792	727.493469	1006.067383	-46.290421	1020.904785	798.388397	419.964676	763.563812	793.368164	-59.758423	843.778931	858.328674	365.662964	811.391724	853.916016	12.982864	690.694641	892.589172	254.023514	684.059387	888.513489	162.476349	687.377014	890.551331	208.249931	696.807373	1125.178223	217.558563	956.228149	1062.054077	180.819183	808.243042	507.366241	361.524353	769.828552	421.909210	305.693390	708.661865	257.004669	364.181335	630.351196	62.648193	259.439667	578.164551	65.667290	218.335815	755.040649	44.843281	228.136307	900.629578	500.062653	1.385272	923.240234	426.770264	52.653545	951.929993	309.022919	9.228569	1033.188721	66.445015	98.551857	999.117920	46.538315	151.830673	1167.143066	94.925858	99.645813
265	2.64000000	856.820190	1290.674438	396.585907	838.002197	1315.369141	15.750626	788.394653	1368.625244	226.146210	931.197998	1250.617920	191.334396	885.256836	974.116882	457.414337	735.650146	1004.573486	-46.655277	1031.394775	798.404602	418.915344	770.848083	791.818390	-60.336515	852.836121	856.729736	365.309204	821.061340	852.116333	12.668945	699.949829	890.915588	253.249298	693.512329	886.968628	161.732529	696.731079	888.942108	207.490913	705.554749	1123.659424	216.743118	965.231628	1060.869141	180.586227	815.056519	505.949951	361.095398	775.363464	420.947235	305.255219	711.886292	256.947784	364.013031	630.684692	63.632900	259.519226	578.554504	67.234367	218.418793	755.080872	44.705452	228.186356	910.208923	498.802704	2.244503	933.604980	425.565857	53.558384	962.151367	307.439697	10.794377	1042.753296	65.507317	100.824852	1008.189148	45.824986	153.950073	1176.639160	92.941170	102.639626
266	2.65000000	864.862061	1289.591431	395.754517	846.732056	1313.852783	14.808012	796.676697	1367.369385	225.065079	939.846558	1249.641113	190.670380	894.198120	973.084778	456.662354	744.068604	1003.094543	-47.091282	1041.486969	798.374542	417.871536	778.532379	790.305237	-60.928106	862.070007	855.185852	364.903778	830.739685	850.329102	12.360998	709.290405	889.345703	252.541077	703.041687	885.552979	161.030640	706.166046	887.449341	206.785858	714.375000	1122.228882	215.859253	974.315552	1059.820068	180.274918	822.155029	504.584320	360.645111	781.284912	420.024780	304.762787	715.374878	256.969238	363.845856	631.088440	64.839989	259.605042	579.018433	69.061142	218.493759	755.189453	44.579571	228.280518	920.458496	497.977936	3.241601	944.362915	424.605988	54.496666	972.056091	305.845917	12.396776	1050.415161	64.382225	102.823845	1015.206299	45.107174	155.777374	1184.269897	89.622047	105.375488
267	2.66000000	872.918274	1288.655273	394.829803	855.516113	1312.443848	13.771250	805.002625	1366.236328	223.876556	948.546936	1248.802979	189.916336	902.910889	972.182922	455.834686	752.744934	1001.658936	-47.592922	1051.166809	798.311584	416.839890	786.621582	788.853241	-61.529911	871.463684	853.723450	364.446625	840.459045	848.637512	12.049715	718.700684	887.908142	251.901993	712.636902	884.296326	160.371017	715.668793	886.102234	206.136505	723.265747	1120.912231	214.913971	983.480469	1058.939697	179.884613	829.553650	503.298431	360.188232	787.671814	419.161469	304.224670	719.149475	257.101868	363.682556	631.595398	66.326385	259.701477	579.592712	71.215187	218.563293	755.390747	44.481251	228.415848	931.294250	497.585663	4.289803	955.418213	423.907990	55.422871	981.732300	304.316162	13.973064	1056.430420	63.148361	104.524628	1020.474609	44.472988	157.292297	1190.331299	85.199570	107.816376
268	2.67000000	880.998230	1287.896484	393.816681	864.352356	1311.167114	12.646516	813.376770	1365.247559	222.587280	957.299744	1248.124146	189.076294	911.390259	971.439819	454.936218	761.672974	1000.294067	-48.154667	1060.421997	798.227814	415.826508	795.119598	787.486267	-62.138536	880.994019	852.368835	363.937927	850.248230	847.139404	11.723692	728.162781	886.628967	251.331665	722.285034	883.225403	159.751770	725.223907	884.927185	205.541718	732.223450	1119.732788	213.915161	992.725098	1058.256714	179.416351	837.285889	502.119019	359.733643	794.620178	418.376343	303.653687	723.252319	257.392792	363.522614	632.253784	68.160858	259.816376	580.334656	73.785522	218.634018	755.702026	44.423782	228.582718	942.622986	497.621185	5.306013	966.658447	423.488037	56.290840	991.274902	302.957764	15.448166	1061.083374	61.898380	105.913948	1024.330811	44.012798	158.484329	1195.137817	79.988823	109.937889
